<?xml version="1.0" encoding="UTF-8"?>
<svg id="Layer_1" xmlns="http://www.w3.org/2000/svg" version="1.1" viewBox="0 0 595.3 841.9">
  <!-- Generator: Adobe Illustrator 29.0.1, SVG Export Plug-In . SVG Version: 2.1.0 Build 192)  -->
  <defs>
    <style>
      .st0 {
        fill: #848484;
        fill-rule: evenodd;
      }
    </style>
  </defs>
  <path class="st0" d="M298,254.5c-41.9,0-84-.4-125.9,0v290.1s251.3,0,251.3,0V254.7c-2.7-.6-122.8-.2-125.3-.2ZM286.5,520.4c2.3,2.8,4.1,3.7,6.4,5.4,0,0,.3.3.4.4.5.5.2.1.6.7h-55.1s1.1-1,1.1-1c6.3-4.8,10.3-7.6,12.3-18.5,1.6-8.6.8-22.8.8-32.1s-.4-63.3.2-65.6c4.6-.6,9-1.1,13.6-1.8,4.2-.7,9.1-2,13-2.4v13.3s11.4-.6,11.4-.6c1.2,2.6,6.5,12.4,6.6,14.8l-17.9,1v53.1c0,12.6-1.3,23.8,6.6,33.4ZM306.6,497.6h-1.6c.3-1,1.1-1.5,1.7-2.2.7-.8,1.2-1.6,1.8-2.5,11.9-19.2-1.2-56.1-10.3-73.9-3.6-7.1-8.8-15.8-13.4-20.7-3.3.3-8.8,1.9-12.5,2.6-4.3.8-8.6,1.5-13.1,2-9.5,1.2-18.3,1.5-28,1.7-.7,2.8-.2,46.9-.2,53.8,0,14.2-1.2,27.5,10.7,36.5.6.5,3.1,2,3.5,2.7h-55.4c3.7-2,8.5-6.8,10.7-10.8,2.7-5,3.7-11.6,3.7-18.1v-165.6c0-6.8-.8-12.7-3.6-18.1-1.9-3.7-4.4-6.3-7.5-8.6-1.1-.8-2.2-1.4-3.1-2.3h80.1c17.7,0,35.1,2.3,48.3,10,27.1,15.9,35.4,51.6,17.7,80-5.8,9.3-13.5,15.9-22.4,21.6-3.1,2-5.9,3.1-9.2,5,.5,1.3,1.1,1.7,2.1,2.9,4.6,5.7,10.3,14.2,13.6,20.7,10,19.5,15.7,35.8,20.6,57.7,1.8,8.3,3.8,14.2,8.8,20.6.9,1.2,4,4,4.4,4.9-14.9.4-32.2-.1-47.4,0ZM383.9,394.5c-3.6,5.1-7.4,9.1-11.7,13-3.3,2.9-8.5,6.6-12.6,8.9l-1.9,1.3,8.8,11.2c14,18.8,24.7,47.6,29.9,70.9,1.8,8.3,3.8,14.9,8.8,21.3l4.7,5.5h-49.1c5.7-6.8,9.1-13.8,8.4-26.3-.5-9.4-3.4-20.6-6.1-29-4.2-12.9-9.8-24.7-17.1-35.5-1.3-1.9-2.4-3.5-3.7-5.2-1.2-1.5-3-3.6-3.9-5l-5.4,1.3c-1.1-4.5-6.5-12.5-7-15.3,2.4-1.4,8.3-3,14.2-6.4,13.4-7.7,23.8-19.2,26.1-36.8,2-15.3-2.7-29.9-12.9-38.7-2.7-2.3-1.6-2.5-2.5-7.8-1.1-6.3-3-10.7-5.1-16.1,5.6.7,13.9,3.8,18.3,6.1,30.2,15.3,39.1,54.9,19.7,82.7ZM448.4,184.2c-5.3-20-21.6-33-42.8-33h-216.7c-11.1,0-22.5,4.3-30,11.9-.9.9-1.6,1.6-2.5,2.5-5.7,5.7-10.8,17.7-10.8,26.4v415.6c0,5.4,2.2,12,4.5,16.6,2.9,5.7,7.1,11,12.1,14.8,8.3,6.3,17.1,9.1,28.5,9.1h213.9c13.6,0,26-4.8,34.4-14.9l3.4-4.5c4.5-6.5,7.2-14.6,7.2-23.6V193.8c0-3.7-.4-6.5-1.2-9.5ZM434.6,609.8c-2.1,11.7-11.4,20.8-23.2,22.9-5.8,1-16.5.4-23,.4h-162.4c-9.1,0-38.6.8-45.4-1.2-10.5-3-19.8-12.7-20.3-25.8-.6-15,0-31.3,0-46.5V235.6c0-8-.5-40.8.4-46,2-12,11.4-21.1,23.2-23.1,5.9-1,16.4-.4,22.8-.4h162.4c8.9,0,38.9-.8,45.5,1.1,10.6,3.2,19.8,12.7,20.4,25.9.4,7.4,0,15.7,0,23.3v347.3c0,8.1.5,40.8-.5,46.2ZM172.1,556.3c-.4,15.6-.1,32,0,47.6,0,7.7,3.8,12.6,8.5,15.2,5.9,3.2,14.7,2.1,22,2.1h190.3c6.8,0,16.4.9,21.8-2,4.8-2.6,8.7-7.2,8.8-15,.2-15.8.2-32.1,0-47.8l-251.3-.2ZM221.1,609.3l-6-11.8c-2.7-4.9-6.4-4.7-13.2-4.4-.3,1.9-.2,7.7,0,9.7.4,3.3,1.3,4.5,2.6,6.8h-14.2c1.6-2.9,2.6-4.3,2.8-8.8v-23.6c0-1.8-.3-3.6-.8-5.2-.6-1.9-1.3-2.2-1.9-3.6,7.2,0,28.6-1,33.5,1.7,3.4,1.9,6.1,6.9,5,12.4-1,5.2-4.2,6.8-9.1,8.4,3.3,2.3,4.7,5,6.7,9.1,3.8,8.1,5.2,7.5,6.4,9.5l-11.8-.3ZM236.7,591.4c-1.3-13.2,6.8-22.9,18.8-24,13.4-1.2,22.8,6.9,23.9,18.9,2.7,29.9-40.1,32.4-42.7,5ZM312.3,586c-1.1,1.5-2.1,3-3.3,4.6-1.5,2-2.2,2.6-2.2,5.8,0,4.8.1,10.2,2.9,12.8h-14.3c3.4-5.2,2.8-7.4,2.8-14.2s-7.3-11.5-9.1-14c-4.6-6.6-5-8.1-10.4-12.7h15.8c-3.1,1.9,1.2,7,2.7,9.2l4.5,6.6c.2.4.5.8.7,1.1.7.8.4.5,1,.9,1.2-2.4,4-5.8,5.6-8.2.8-1.2,2.1-2.9,2.9-4.3,1.2-2.3,1.2-3.3,0-5.3h14.1c-5.2,4.7-9.4,11.4-13.9,17.7ZM360.4,607.8c-.2,0-.3,0-.3.2,0,.1-.2.1-.2.2l-2,.9c-1,.3-1.9.5-2.9.7-2.1.4-4.3.5-6.5.6-12.4,0-22.9-6.6-23.1-21-.2-18.3,17.6-26.2,34.9-19.6v8.7c-2.5-1.5-3.4-2.9-7.6-3.6-10.5-1.9-18.4,3.3-17.9,15,.7,18.3,21.6,14.7,26.9,9.4l-1.2,8.7ZM401.9,609.6h-32.7c1.8-3.5,2.6-4.1,2.8-8.8.1-3.9,0-7.9,0-11.8,0-8.1,1.1-14.7-2.8-20.6h32.5s0,8.8,0,8.8c-3.8-1.8-4.7-2-9.7-2.1-3.2,0-8.2-.3-11.4,0v10.2s16.7,0,16.7,0c0,1.2-.3,2.3-.4,3.5-.2,1.4,0,2-1,2.7h-15.3c0,0,0,11.2,0,11.2,3.4.4,9.5.2,13.1,0,4.8-.2,6.7-.7,9.6-3l-1.5,9.8ZM172.1,242.7h251.2c.3-7.7,0-15.9,0-23.6s0-16,0-24c0-7.5-3.4-12.4-8.3-15.2-5.6-3.3-14.5-2.2-21.6-2.2h-191c-6.7,0-16.3-1-21.6,1.9-4.8,2.6-8.8,7.4-8.9,15.2,0,8,0,16,0,24s-.4,16.5,0,23.9ZM370.4,219.3c2.9,2.6,4.8,4.4,10.1,5.7,4.5,1.2,10.4,1,13.5-1.4,1.4-1.1,2.7-3.4,1.8-6-1.5-4.7-11.6-3.7-17.5-6.1-15.8-6.5-6.3-31.9,23.5-20.8v9c-1.1-.6-1.3-1.2-2.5-1.9-6.7-4.2-20.4-4.2-19.2,2.4,1.1,6,15.1,3.3,22.2,9.6,2.7,2.4,4,7.7,2.4,12.5-4.4,13.9-27.9,10.9-34.3,7.1v-10ZM332.2,197.7c-.2-6-2-7-3-9.2h15c-1.3.9-2.5,4.1-2.9,6.7-.5,3.2-.2,25.3-.2,29.5,3.8,0,9,.3,12.7,0,5-.5,5.9-1.7,8.9-3.6l-1.7,10.5c-.6.9-31.2.4-31.7.4,1.9-2.9,2.9-4.3,3-9.2v-25ZM293.2,197.4c-.2-5.2-1.6-6.1-2.9-8.9h14.8c-1.1,2.5-2.1,3.2-2.6,7.2-.5,3.7-.4,26.9,0,29,3.5.2,8.7.2,12.1-.1,3.6-.4,5.4-1,8.2-2.9,0,0,.2-.1.2-.2l.5-.3c-.2,2.2-.7,8.9-1.5,10.5h-31.8c2-2.9,3-4.6,3-9.3v-25ZM257,188c32.2-5.2,35.8,40.1,9,44.6-14.5,2.4-24.9-5.9-26.9-17.7-2.4-14.6,5.6-24.9,17.9-26.8ZM193.2,209.9c0-4.1.1-8.4,0-12.5-.2-6-2-6.7-3-8.8,7.2-.3,30.2-.9,35.1,1.8,5.8,3.3,8.2,13.4,2.1,18.9-2.2,2-3.9,1.8-6.2,3.1,1.9,1.7,2.6,1.9,4.1,4.4,5.4,8.6,1.6,5.8,9.7,15h-12.5c0,0-6.4-12.5-6.4-12.5-1.1-2-2.4-3.7-5-4.3-1.7-.4-6.8-.3-8.7-.1-.8,5.6-.2,13.8,2.9,17h-15.1c4.4-4.8,3-14.8,3-21.9ZM312.7,310.3c-9.4-17.4-28.4-21.3-47.3-21.3-11.3,0-22.9-.2-34.4,0v100.6c19.6.2,41.9-3.8,57.1-11.5,14.3-7.3,26.8-19.2,29.5-39.1,1.4-10.6-.6-20.6-5-28.7ZM279.7,318.5v56.9c-8.1,2.8-17.6,6-26.8,6.6-.2-15.3,0-30.8,0-46.2,0-12.2-1.1-23.7-12.1-30.7l-1.3-.9c-.6-.5-.1,0-.6-.7h59.2c3.5.5,11,10.2,11.8,15.1h-30ZM263.2,225.1c7.9-1,11.8-7.7,11.2-16.7-.5-8.1-6.1-14.4-15-13.3-8.9,1.1-11.4,8.9-11,16.8.4,8.3,5.8,14.3,14.8,13.1ZM255.4,574.8c-7.8,1.5-10.5,8.2-9.6,17,1.7,16.3,26.7,16.5,24.4-5.5-.8-7.7-6.1-13.1-14.8-11.4ZM215,207.6c9.1-1.1,8.7-11.1-.3-12-2.4-.2-10.2-.4-12.4,0v11.9c2.1.4,10.4.3,12.7,0ZM201.9,575.1v11.4c2.9.3,8.8.3,11.7,0,3.6-.4,6.4-1.9,6.4-5.7,0-7.2-11.9-6-18.1-5.6Z"/>
</svg>