{
	"asset":{
		"version":"2.0",
		"generator":"Houdini GLTF 2.0 Exporter"
	},
	"accessors":[
		{
			"bufferView":0,
			"componentType":5123,
			"count":2196,
			"type":"SCALAR",
			"min":[0
			],
			"max":[1793
			]
		},
		{
			"bufferView":1,
			"componentType":5126,
			"count":1794,
			"type":"VEC3",
			"min":[-0.505536914,0,-0.510535121
			],
			"max":[0.505536914,1.11859655,0.510535121
			]
		},
		{
			"bufferView":2,
			"componentType":5126,
			"count":1794,
			"type":"VEC4",
			"min":[-0.927171707,-0.945814967,-0.837411523,1
			],
			"max":[0.857963741,0.999192476,0.845798135,1
			]
		},
		{
			"bufferView":3,
			"componentType":5126,
			"count":1794,
			"type":"VEC2",
			"min":[0.001953125,0.0108406544
			],
			"max":[0.997907162,0.998046875
			]
		},
		{
			"bufferView":4,
			"componentType":5126,
			"count":1794,
			"type":"VEC3",
			"min":[-0.997219622,-0.999948025,-0.999647737
			],
			"max":[0.997561932,1,0.999773741
			]
		}
	],
	"buffers":[
		{
			"uri":"vase_data.bin",
			"byteLength":90504,
			"name":"main_buffer"
		}
	],
	"bufferViews":[
		{
			"buffer":0,
			"byteLength":4392,
			"target":34963
		},
		{
			"buffer":0,
			"byteOffset":4392,
			"byteLength":21528,
			"target":34962
		},
		{
			"buffer":0,
			"byteOffset":25920,
			"byteLength":28704,
			"target":34962
		},
		{
			"buffer":0,
			"byteOffset":54624,
			"byteLength":14352,
			"target":34962
		},
		{
			"buffer":0,
			"byteOffset":68976,
			"byteLength":21528,
			"target":34962
		}
	],
	"nodes":[
		{
			"children":[1
			],
			"name":"Root"
		},
		{
			"name":"vase_web",
			"mesh":0
		}
	],
	"meshes":[
		{
			"primitives":[
				{
					"attributes":{
						"POSITION":1,
						"TANGENT":2,
						"NORMAL":4,
						"TEXCOORD_0":3
					},
					"indices":0
				}
			],
			"name":"null1"
		}
	],
	"scenes":[
		{
			"nodes":[0
			]
		}
	],
	"scene":0
}
