{
	"asset":{
		"version":"2.0",
		"generator":"Houdini GLTF 2.0 Exporter"
	},
	"accessors":[
		{
			"bufferView":0,
			"componentType":5123,
			"count":21582,
			"type":"SCALAR",
			"min":[0
			],
			"max":[17331
			]
		},
		{
			"bufferView":1,
			"componentType":5126,
			"count":17332,
			"type":"VEC3",
			"min":[-4.21332026,5.34889984,-1.81760311
			],
			"max":[5.58671999,7.65911388,1.8276031
			]
		},
		{
			"bufferView":2,
			"componentType":5126,
			"count":17332,
			"type":"VEC3",
			"min":[0.0125000002,0.0125000002,0.0125000002
			],
			"max":[1,1,1
			]
		},
		{
			"bufferView":3,
			"componentType":5126,
			"count":17332,
			"type":"VEC4",
			"min":[-1,-1,-1,1
			],
			"max":[1,1,1,1
			]
		},
		{
			"bufferView":4,
			"componentType":5126,
			"count":17332,
			"type":"VEC2",
			"min":[-8.84575939,-6.65911484
			],
			"max":[8.90347958,2.82760334
			]
		},
		{
			"bufferView":5,
			"componentType":5126,
			"count":17332,
			"type":"VEC3",
			"min":[-1,-1,-1
			],
			"max":[1,1,1
			]
		}
	],
	"buffers":[
		{
			"uri":"3d_building_floor3_data.bin",
			"byteLength":1083084,
			"name":"main_buffer"
		}
	],
	"bufferViews":[
		{
			"buffer":0,
			"byteLength":43164,
			"target":34963
		},
		{
			"buffer":0,
			"byteOffset":43164,
			"byteLength":207984,
			"target":34962
		},
		{
			"buffer":0,
			"byteOffset":251148,
			"byteLength":207984,
			"target":34962
		},
		{
			"buffer":0,
			"byteOffset":459132,
			"byteLength":277312,
			"target":34962
		},
		{
			"buffer":0,
			"byteOffset":736444,
			"byteLength":138656,
			"target":34962
		},
		{
			"buffer":0,
			"byteOffset":875100,
			"byteLength":207984,
			"target":34962
		}
	],
	"nodes":[
		{
			"children":[1
			],
			"name":"Root"
		},
		{
			"name":"building_03",
			"mesh":0
		}
	],
	"meshes":[
		{
			"primitives":[
				{
					"attributes":{
						"POSITION":1,
						"TANGENT":3,
						"COLOR_0":2,
						"NORMAL":5,
						"TEXCOORD_0":4
					},
					"indices":0
				}
			],
			"name":"OUT_building_03"
		}
	],
	"scenes":[
		{
			"nodes":[0
			]
		}
	],
	"scene":0
}
