{
	"asset":{
		"version":"2.0",
		"generator":"Houdini GLTF 2.0 Exporter"
	},
	"accessors":[
		{
			"bufferView":0,
			"componentType":5123,
			"count":10698,
			"type":"SCALAR",
			"min":[0
			],
			"max":[8957
			]
		},
		{
			"bufferView":1,
			"componentType":5126,
			"count":8958,
			"type":"VEC3",
			"min":[-4.28259993,7.65689993,-1.82301283
			],
			"max":[5.58740044,9.92640972,1.82901287
			]
		},
		{
			"bufferView":2,
			"componentType":5126,
			"count":8958,
			"type":"VEC3",
			"min":[0.0125000002,0.0125000002,0.0125000002
			],
			"max":[1,1,1
			]
		},
		{
			"bufferView":3,
			"componentType":5126,
			"count":8958,
			"type":"VEC4",
			"min":[-1,-1,-1,1
			],
			"max":[1,1,1,1
			]
		},
		{
			"bufferView":4,
			"componentType":5126,
			"count":8958,
			"type":"VEC2",
			"min":[-10.0568285,-8.92640877
			],
			"max":[9.94774342,2.82901335
			]
		},
		{
			"bufferView":5,
			"componentType":5126,
			"count":8958,
			"type":"VEC3",
			"min":[-1,-1,-1
			],
			"max":[1,1,1
			]
		}
	],
	"buffers":[
		{
			"uri":"3d_building_floor4_data.bin",
			"byteLength":558876,
			"name":"main_buffer"
		}
	],
	"bufferViews":[
		{
			"buffer":0,
			"byteLength":21396,
			"target":34963
		},
		{
			"buffer":0,
			"byteOffset":21396,
			"byteLength":107496,
			"target":34962
		},
		{
			"buffer":0,
			"byteOffset":128892,
			"byteLength":107496,
			"target":34962
		},
		{
			"buffer":0,
			"byteOffset":236388,
			"byteLength":143328,
			"target":34962
		},
		{
			"buffer":0,
			"byteOffset":379716,
			"byteLength":71664,
			"target":34962
		},
		{
			"buffer":0,
			"byteOffset":451380,
			"byteLength":107496,
			"target":34962
		}
	],
	"nodes":[
		{
			"children":[1
			],
			"name":"Root"
		},
		{
			"name":"building_04",
			"mesh":0
		}
	],
	"meshes":[
		{
			"primitives":[
				{
					"attributes":{
						"POSITION":1,
						"TANGENT":3,
						"COLOR_0":2,
						"NORMAL":5,
						"TEXCOORD_0":4
					},
					"indices":0
				}
			],
			"name":"OUT_building_04"
		}
	],
	"scenes":[
		{
			"nodes":[0
			]
		}
	],
	"scene":0
}
