{
	"asset":{
		"version":"2.0",
		"generator":"Houdini GLTF 2.0 Exporter"
	},
	"accessors":[
		{
			"bufferView":0,
			"componentType":5123,
			"count":12039,
			"type":"SCALAR",
			"min":[0
			],
			"max":[9660
			]
		},
		{
			"bufferView":1,
			"componentType":5126,
			"count":9661,
			"type":"VEC3",
			"min":[-4.37450171,2.82998562,-1.81754243
			],
			"max":[5.58650255,5.36095715,1.8265425
			]
		},
		{
			"bufferView":2,
			"componentType":5126,
			"count":9661,
			"type":"VEC3",
			"min":[0.0125000002,0.0125000002,0.0125000002
			],
			"max":[1,1,1
			]
		},
		{
			"bufferView":3,
			"componentType":5126,
			"count":9661,
			"type":"VEC4",
			"min":[-5.62631857e+28,-8.34106068e+18,-1.20346898e+34,1
			],
			"max":[1.10409681e+36,5.03658094e+27,2.33186133e+27,1
			]
		},
		{
			"bufferView":4,
			"componentType":5126,
			"count":9661,
			"type":"VEC2",
			"min":[-7.22331429,-4.50356531
			],
			"max":[7.19334126,2.82652617
			]
		},
		{
			"bufferView":5,
			"componentType":5126,
			"count":9661,
			"type":"VEC3",
			"min":[-1,-1,-1
			],
			"max":[1,1,1
			]
		}
	],
	"buffers":[
		{
			"uri":"3d_building_floor2_data.bin",
			"byteLength":603740,
			"name":"main_buffer"
		}
	],
	"bufferViews":[
		{
			"buffer":0,
			"byteLength":24078,
			"target":34963
		},
		{
			"buffer":0,
			"byteOffset":24080,
			"byteLength":115932,
			"target":34962
		},
		{
			"buffer":0,
			"byteOffset":140012,
			"byteLength":115932,
			"target":34962
		},
		{
			"buffer":0,
			"byteOffset":255944,
			"byteLength":154576,
			"target":34962
		},
		{
			"buffer":0,
			"byteOffset":410520,
			"byteLength":77288,
			"target":34962
		},
		{
			"buffer":0,
			"byteOffset":487808,
			"byteLength":115932,
			"target":34962
		}
	],
	"nodes":[
		{
			"children":[1
			],
			"name":"Root"
		},
		{
			"name":"building_02",
			"mesh":0
		}
	],
	"meshes":[
		{
			"primitives":[
				{
					"attributes":{
						"POSITION":1,
						"TANGENT":3,
						"COLOR_0":2,
						"NORMAL":5,
						"TEXCOORD_0":4
					},
					"indices":0
				}
			],
			"name":"OUT_building_02"
		}
	],
	"scenes":[
		{
			"nodes":[0
			]
		}
	],
	"scene":0
}
