{
	"asset":{
		"version":"2.0",
		"generator":"Houdini GLTF 2.0 Exporter"
	},
	"accessors":[
		{
			"bufferView":0,
			"componentType":5123,
			"count":17133,
			"type":"SCALAR",
			"min":[0
			],
			"max":[13716
			]
		},
		{
			"bufferView":1,
			"componentType":5126,
			"count":13717,
			"type":"VEC3",
			"min":[-6.44008875,0,-1.82346988
			],
			"max":[6.44008875,2.83639193,1.82347262
			]
		},
		{
			"bufferView":2,
			"componentType":5126,
			"count":13717,
			"type":"VEC3",
			"min":[0.0125000002,0.0125000002,0.0125000002
			],
			"max":[1,1,1
			]
		},
		{
			"bufferView":3,
			"componentType":5126,
			"count":13717,
			"type":"VEC4",
			"min":[-1,-1,-1,1
			],
			"max":[1,1,1,1
			]
		},
		{
			"bufferView":4,
			"componentType":5126,
			"count":13717,
			"type":"VEC2",
			"min":[-6.44008875,-1.83639193
			],
			"max":[6.44008875,2.8234725
			]
		},
		{
			"bufferView":5,
			"componentType":5126,
			"count":13717,
			"type":"VEC3",
			"min":[-1,-1,-1
			],
			"max":[1,1,1
			]
		},
		{
			"bufferView":6,
			"componentType":5123,
			"count":12039,
			"type":"SCALAR",
			"min":[0
			],
			"max":[9660
			]
		},
		{
			"bufferView":7,
			"componentType":5126,
			"count":9661,
			"type":"VEC3",
			"min":[-4.37450171,2.82998562,-1.81754243
			],
			"max":[5.58650255,5.36095715,1.8265425
			]
		},
		{
			"bufferView":8,
			"componentType":5126,
			"count":9661,
			"type":"VEC3",
			"min":[0.0125000002,0.0125000002,0.0125000002
			],
			"max":[1,1,1
			]
		},
		{
			"bufferView":9,
			"componentType":5126,
			"count":9661,
			"type":"VEC4",
			"min":[-1,-0.999997735,-1,1
			],
			"max":[1,1,1,1
			]
		},
		{
			"bufferView":10,
			"componentType":5126,
			"count":9661,
			"type":"VEC2",
			"min":[-7.22331429,-4.50356531
			],
			"max":[7.19334126,2.82652617
			]
		},
		{
			"bufferView":11,
			"componentType":5126,
			"count":9661,
			"type":"VEC3",
			"min":[-1,-1,-1
			],
			"max":[1,1,1
			]
		},
		{
			"bufferView":12,
			"componentType":5123,
			"count":21582,
			"type":"SCALAR",
			"min":[0
			],
			"max":[17331
			]
		},
		{
			"bufferView":13,
			"componentType":5126,
			"count":17332,
			"type":"VEC3",
			"min":[-4.21332026,5.34889984,-1.81760311
			],
			"max":[5.58671999,7.65911388,1.8276031
			]
		},
		{
			"bufferView":14,
			"componentType":5126,
			"count":17332,
			"type":"VEC3",
			"min":[0.0125000002,0.0125000002,0.0125000002
			],
			"max":[1,1,1
			]
		},
		{
			"bufferView":15,
			"componentType":5126,
			"count":17332,
			"type":"VEC4",
			"min":[-1,-1,-1,1
			],
			"max":[1,1,1,1
			]
		},
		{
			"bufferView":16,
			"componentType":5126,
			"count":17332,
			"type":"VEC2",
			"min":[-8.84575939,-6.65911484
			],
			"max":[8.90347958,2.82760334
			]
		},
		{
			"bufferView":17,
			"componentType":5126,
			"count":17332,
			"type":"VEC3",
			"min":[-1,-1,-1
			],
			"max":[1,1,1
			]
		},
		{
			"bufferView":18,
			"componentType":5123,
			"count":10698,
			"type":"SCALAR",
			"min":[0
			],
			"max":[8957
			]
		},
		{
			"bufferView":19,
			"componentType":5126,
			"count":8958,
			"type":"VEC3",
			"min":[-4.28259993,7.65689993,-1.82301283
			],
			"max":[5.58740044,9.92640972,1.82901287
			]
		},
		{
			"bufferView":20,
			"componentType":5126,
			"count":8958,
			"type":"VEC3",
			"min":[0.0125000002,0.0125000002,0.0125000002
			],
			"max":[1,1,1
			]
		},
		{
			"bufferView":21,
			"componentType":5126,
			"count":8958,
			"type":"VEC4",
			"min":[-1,-1,-1,1
			],
			"max":[1,1,1,1
			]
		},
		{
			"bufferView":22,
			"componentType":5126,
			"count":8958,
			"type":"VEC2",
			"min":[-10.0568285,-8.92640877
			],
			"max":[9.94774342,2.82901335
			]
		},
		{
			"bufferView":23,
			"componentType":5126,
			"count":8958,
			"type":"VEC3",
			"min":[-1,-1,-1
			],
			"max":[1,1,1
			]
		},
		{
			"bufferView":24,
			"componentType":5121,
			"count":36,
			"type":"SCALAR",
			"min":[0
			],
			"max":[23
			]
		},
		{
			"bufferView":25,
			"componentType":5126,
			"count":24,
			"type":"VEC3",
			"min":[-3.576823,9.9229002,-1.81840336
			],
			"max":[3.14322305,10.0817995,1.83060348
			]
		},
		{
			"bufferView":26,
			"componentType":5126,
			"count":24,
			"type":"VEC3",
			"min":[0.333000004,0.333000004,0.333000004
			],
			"max":[0.333000004,0.333000004,0.333000004
			]
		},
		{
			"bufferView":27,
			"componentType":5126,
			"count":24,
			"type":"VEC4",
			"min":[1,0,0,1
			],
			"max":[1,0,0,1
			]
		},
		{
			"bufferView":28,
			"componentType":5126,
			"count":24,
			"type":"VEC2",
			"min":[-3.576823,-9.08179951
			],
			"max":[3.57682276,2.83060408
			]
		},
		{
			"bufferView":29,
			"componentType":5126,
			"count":24,
			"type":"VEC3",
			"min":[-1,-1,-1
			],
			"max":[1,1,1
			]
		}
	],
	"buffers":[
		{
			"uri":"3d_building_data.bin",
			"byteLength":3104464,
			"name":"main_buffer"
		}
	],
	"bufferViews":[
		{
			"buffer":0,
			"byteLength":34266,
			"target":34963
		},
		{
			"buffer":0,
			"byteOffset":34268,
			"byteLength":164604,
			"target":34962
		},
		{
			"buffer":0,
			"byteOffset":198872,
			"byteLength":164604,
			"target":34962
		},
		{
			"buffer":0,
			"byteOffset":363476,
			"byteLength":219472,
			"target":34962
		},
		{
			"buffer":0,
			"byteOffset":582948,
			"byteLength":109736,
			"target":34962
		},
		{
			"buffer":0,
			"byteOffset":692684,
			"byteLength":164604,
			"target":34962
		},
		{
			"buffer":0,
			"byteOffset":857288,
			"byteLength":24078,
			"target":34963
		},
		{
			"buffer":0,
			"byteOffset":881368,
			"byteLength":115932,
			"target":34962
		},
		{
			"buffer":0,
			"byteOffset":997300,
			"byteLength":115932,
			"target":34962
		},
		{
			"buffer":0,
			"byteOffset":1113232,
			"byteLength":154576,
			"target":34962
		},
		{
			"buffer":0,
			"byteOffset":1267808,
			"byteLength":77288,
			"target":34962
		},
		{
			"buffer":0,
			"byteOffset":1345096,
			"byteLength":115932,
			"target":34962
		},
		{
			"buffer":0,
			"byteOffset":1461028,
			"byteLength":43164,
			"target":34963
		},
		{
			"buffer":0,
			"byteOffset":1504192,
			"byteLength":207984,
			"target":34962
		},
		{
			"buffer":0,
			"byteOffset":1712176,
			"byteLength":207984,
			"target":34962
		},
		{
			"buffer":0,
			"byteOffset":1920160,
			"byteLength":277312,
			"target":34962
		},
		{
			"buffer":0,
			"byteOffset":2197472,
			"byteLength":138656,
			"target":34962
		},
		{
			"buffer":0,
			"byteOffset":2336128,
			"byteLength":207984,
			"target":34962
		},
		{
			"buffer":0,
			"byteOffset":2544112,
			"byteLength":21396,
			"target":34963
		},
		{
			"buffer":0,
			"byteOffset":2565508,
			"byteLength":107496,
			"target":34962
		},
		{
			"buffer":0,
			"byteOffset":2673004,
			"byteLength":107496,
			"target":34962
		},
		{
			"buffer":0,
			"byteOffset":2780500,
			"byteLength":143328,
			"target":34962
		},
		{
			"buffer":0,
			"byteOffset":2923828,
			"byteLength":71664,
			"target":34962
		},
		{
			"buffer":0,
			"byteOffset":2995492,
			"byteLength":107496,
			"target":34962
		},
		{
			"buffer":0,
			"byteOffset":3102988,
			"byteLength":36,
			"target":34963
		},
		{
			"buffer":0,
			"byteOffset":3103024,
			"byteLength":288,
			"target":34962
		},
		{
			"buffer":0,
			"byteOffset":3103312,
			"byteLength":288,
			"target":34962
		},
		{
			"buffer":0,
			"byteOffset":3103600,
			"byteLength":384,
			"target":34962
		},
		{
			"buffer":0,
			"byteOffset":3103984,
			"byteLength":192,
			"target":34962
		},
		{
			"buffer":0,
			"byteOffset":3104176,
			"byteLength":288,
			"target":34962
		}
	],
	"nodes":[
		{
			"children":[1,2,3,4,5
			],
			"name":"Root"
		},
		{
			"name":"building_01",
			"mesh":0
		},
		{
			"name":"building_02",
			"mesh":1
		},
		{
			"name":"building_03",
			"mesh":2
		},
		{
			"name":"building_04",
			"mesh":3
		},
		{
			"name":"building_05",
			"mesh":4
		}
	],
	"meshes":[
		{
			"primitives":[
				{
					"attributes":{
						"POSITION":1,
						"TANGENT":3,
						"COLOR_0":2,
						"NORMAL":5,
						"TEXCOORD_0":4
					},
					"indices":0
				}
			],
			"name":"OUT_building_01"
		},
		{
			"primitives":[
				{
					"attributes":{
						"POSITION":7,
						"TANGENT":9,
						"COLOR_0":8,
						"NORMAL":11,
						"TEXCOORD_0":10
					},
					"indices":6
				}
			],
			"name":"OUT_building_02"
		},
		{
			"primitives":[
				{
					"attributes":{
						"POSITION":13,
						"TANGENT":15,
						"COLOR_0":14,
						"NORMAL":17,
						"TEXCOORD_0":16
					},
					"indices":12
				}
			],
			"name":"OUT_building_03"
		},
		{
			"primitives":[
				{
					"attributes":{
						"POSITION":19,
						"TANGENT":21,
						"COLOR_0":20,
						"NORMAL":23,
						"TEXCOORD_0":22
					},
					"indices":18
				}
			],
			"name":"OUT_building_04"
		},
		{
			"primitives":[
				{
					"attributes":{
						"POSITION":25,
						"TANGENT":27,
						"COLOR_0":26,
						"NORMAL":29,
						"TEXCOORD_0":28
					},
					"indices":24
				}
			],
			"name":"OUT_building_05"
		}
	],
	"scenes":[
		{
			"nodes":[0
			]
		}
	],
	"scene":0
}
