{
	"asset":{
		"version":"2.0",
		"generator":"Houdini GLTF 2.0 Exporter"
	},
	"accessors":[
		{
			"bufferView":0,
			"componentType":5123,
			"count":17133,
			"type":"SCALAR",
			"min":[0
			],
			"max":[13716
			]
		},
		{
			"bufferView":1,
			"componentType":5126,
			"count":13717,
			"type":"VEC3",
			"min":[-6.44008875,0,-1.82346988
			],
			"max":[6.44008875,2.83639193,1.82347262
			]
		},
		{
			"bufferView":2,
			"componentType":5126,
			"count":13717,
			"type":"VEC3",
			"min":[0.0125000002,0.0125000002,0.0125000002
			],
			"max":[1,1,1
			]
		},
		{
			"bufferView":3,
			"componentType":5126,
			"count":13717,
			"type":"VEC4",
			"min":[-1,-1,-1,1
			],
			"max":[1,1,1,1
			]
		},
		{
			"bufferView":4,
			"componentType":5126,
			"count":13717,
			"type":"VEC2",
			"min":[-6.44008875,-1.83639193
			],
			"max":[6.44008875,2.8234725
			]
		},
		{
			"bufferView":5,
			"componentType":5126,
			"count":13717,
			"type":"VEC3",
			"min":[-1,-1,-1
			],
			"max":[1,1,1
			]
		}
	],
	"buffers":[
		{
			"uri":"3d_building_floor1_data.bin",
			"byteLength":857288,
			"name":"main_buffer"
		}
	],
	"bufferViews":[
		{
			"buffer":0,
			"byteLength":34266,
			"target":34963
		},
		{
			"buffer":0,
			"byteOffset":34268,
			"byteLength":164604,
			"target":34962
		},
		{
			"buffer":0,
			"byteOffset":198872,
			"byteLength":164604,
			"target":34962
		},
		{
			"buffer":0,
			"byteOffset":363476,
			"byteLength":219472,
			"target":34962
		},
		{
			"buffer":0,
			"byteOffset":582948,
			"byteLength":109736,
			"target":34962
		},
		{
			"buffer":0,
			"byteOffset":692684,
			"byteLength":164604,
			"target":34962
		}
	],
	"nodes":[
		{
			"children":[1
			],
			"name":"Root"
		},
		{
			"name":"building_01",
			"mesh":0
		}
	],
	"meshes":[
		{
			"primitives":[
				{
					"attributes":{
						"POSITION":1,
						"TANGENT":3,
						"COLOR_0":2,
						"NORMAL":5,
						"TEXCOORD_0":4
					},
					"indices":0
				}
			],
			"name":"OUT_building_01"
		}
	],
	"scenes":[
		{
			"nodes":[0
			]
		}
	],
	"scene":0
}
