{
    "asset": {
        "generator": "Khronos glTF Blender I/O v3.6.27",
        "version": "2.0"
    },
    "scene": 0,
    "scenes": [
        {
            "name": "Scene",
            "nodes": [
                0
            ]
        }
    ],
    "nodes": [
        {
            "mesh": 0,
            "name": "tefcefala_LOD0_TIER3_000",
            "rotation": [
                0.7071068286895752,
                0,
                0,
                0.7071068286895752
            ],
            "scale": [
                0.009999999776482582,
                0.009999999776482582,
                0.009999999776482582
            ]
        }
    ],
    "materials": [
        {
            "doubleSided": true,
            "name": "MI_tefcefala",
            "normalTexture": {
                "index": 0
            },
            "occlusionTexture": {
                "index": 1
            },
            "pbrMetallicRoughness": {
                "baseColorTexture": {
                    "index": 2
                },
                "metallicRoughnessTexture": {
                    "index": 1
                }
            }
        }
    ],
    "meshes": [
        {
            "name": "S_tefcefala_tier_3",
            "primitives": [
                {
                    "attributes": {
                        "POSITION": 0,
                        "NORMAL": 1,
                        "TEXCOORD_0": 2,
                        "TANGENT": 3
                    },
                    "indices": 4,
                    "material": 0
                }
            ]
        }
    ],
    "textures": [
        {
            "sampler": 0,
            "source": 0
        },
        {
            "sampler": 0,
            "source": 1
        },
        {
            "sampler": 0,
            "source": 2
        }
    ],
    "images": [
        {
            "mimeType": "image/jpeg",
            "name": "T_tefcefala_1K_N",
            "uri": "Textures/T_tefcefala_1K_N.jpg"
        },
        {
            "mimeType": "image/jpeg",
            "name": "T_tefcefala_1K_ORM",
            "uri": "Textures/T_tefcefala_1K_ORM.jpg",
            "extras": {
                "compression": "mask"
            }
        },
        {
            "mimeType": "image/jpeg",
            "name": "T_tefcefala_1K_B",
            "uri": "Textures/T_tefcefala_1K_B.jpg"
        }
    ],
    "accessors": [
        {
            "bufferView": 0,
            "componentType": 5126,
            "count": 102,
            "max": [
                4.036861419677734,
                3.9010086059570312,
                4.220820903778076
            ],
            "min": [
                -3.928513765335083,
                -4.02510404586792,
                -4.346492290496826
            ],
            "type": "VEC3"
        },
        {
            "bufferView": 1,
            "componentType": 5126,
            "count": 102,
            "type": "VEC3"
        },
        {
            "bufferView": 2,
            "componentType": 5126,
            "count": 102,
            "type": "VEC2"
        },
        {
            "bufferView": 3,
            "componentType": 5126,
            "count": 102,
            "type": "VEC4"
        },
        {
            "bufferView": 4,
            "componentType": 5123,
            "count": 330,
            "type": "SCALAR"
        }
    ],
    "bufferViews": [
        {
            "buffer": 0,
            "byteLength": 1224,
            "byteOffset": 0,
            "target": 34962
        },
        {
            "buffer": 0,
            "byteLength": 1224,
            "byteOffset": 1224,
            "target": 34962
        },
        {
            "buffer": 0,
            "byteLength": 816,
            "byteOffset": 2448,
            "target": 34962
        },
        {
            "buffer": 0,
            "byteLength": 1632,
            "byteOffset": 3264,
            "target": 34962
        },
        {
            "buffer": 0,
            "byteLength": 660,
            "byteOffset": 4896,
            "target": 34963
        }
    ],
    "samplers": [
        {
            "magFilter": 9729,
            "minFilter": 9987
        }
    ],
    "buffers": [
        {
            "byteLength": 5556,
            "uri": "tefcefala_tier_3.bin"
        }
    ]
}