{
	"asset":{
		"version":"2.0",
		"generator":"Houdini GLTF 2.0 Exporter"
	},
	"accessors":[
		{
			"bufferView":0,
			"componentType":5121,
			"count":84,
			"type":"SCALAR",
			"min":[0
			],
			"max":[51
			]
		},
		{
			"bufferView":1,
			"componentType":5126,
			"count":52,
			"type":"VEC3",
			"min":[-1.09799993,-0.0480000004,-0.59799999
			],
			"max":[1.09799993,0.25999999,0.59799999
			]
		},
		{
			"bufferView":2,
			"componentType":5126,
			"count":52,
			"type":"VEC4",
			"min":[-1,0,0,1
			],
			"max":[1,0,1,1
			]
		},
		{
			"bufferView":3,
			"componentType":5126,
			"count":52,
			"type":"VEC2",
			"min":[-1.09799993,0.40200001
			],
			"max":[1.09799993,1.59800005
			]
		},
		{
			"bufferView":4,
			"componentType":5126,
			"count":52,
			"type":"VEC3",
			"min":[-1,-1,-1
			],
			"max":[1,1,1
			]
		},
		{
			"bufferView":5,
			"componentType":5121,
			"count":36,
			"type":"SCALAR",
			"min":[0
			],
			"max":[23
			]
		},
		{
			"bufferView":6,
			"componentType":5126,
			"count":24,
			"type":"VEC3",
			"min":[-0.871169984,-0.150000006,0.017088294
			],
			"max":[-0.611169994,0.349999994,0.517088294
			]
		},
		{
			"bufferView":7,
			"componentType":5126,
			"count":24,
			"type":"VEC4",
			"min":[-1,0,0,1
			],
			"max":[1,0,0,1
			]
		},
		{
			"bufferView":8,
			"componentType":5126,
			"count":24,
			"type":"VEC2",
			"min":[-0.871169984,0.482911706
			],
			"max":[0.871169984,1.51708829
			]
		},
		{
			"bufferView":9,
			"componentType":5126,
			"count":24,
			"type":"VEC3",
			"min":[-1,-1,-1
			],
			"max":[1,1,1
			]
		},
		{
			"bufferView":10,
			"componentType":5121,
			"count":36,
			"type":"SCALAR",
			"min":[0
			],
			"max":[23
			]
		},
		{
			"bufferView":11,
			"componentType":5126,
			"count":24,
			"type":"VEC3",
			"min":[-0.382064551,-0.150000006,0.017088294
			],
			"max":[-0.122064561,0.349999994,0.517088294
			]
		},
		{
			"bufferView":12,
			"componentType":5126,
			"count":24,
			"type":"VEC4",
			"min":[-1,0,0,1
			],
			"max":[1,0,0,1
			]
		},
		{
			"bufferView":13,
			"componentType":5126,
			"count":24,
			"type":"VEC2",
			"min":[-0.517088294,0.482911706
			],
			"max":[0.517088294,1.51708829
			]
		},
		{
			"bufferView":14,
			"componentType":5126,
			"count":24,
			"type":"VEC3",
			"min":[-1,-1,-1
			],
			"max":[1,1,1
			]
		},
		{
			"bufferView":15,
			"componentType":5121,
			"count":36,
			"type":"SCALAR",
			"min":[0
			],
			"max":[23
			]
		},
		{
			"bufferView":16,
			"componentType":5126,
			"count":24,
			"type":"VEC3",
			"min":[0.127072513,-0.150000006,0.017088294
			],
			"max":[0.387072504,0.349999994,0.517088294
			]
		},
		{
			"bufferView":17,
			"componentType":5126,
			"count":24,
			"type":"VEC4",
			"min":[-1,0,0,1
			],
			"max":[1,0,0,1
			]
		},
		{
			"bufferView":18,
			"componentType":5126,
			"count":24,
			"type":"VEC2",
			"min":[-0.517088294,0.482911706
			],
			"max":[0.517088294,1.51708829
			]
		},
		{
			"bufferView":19,
			"componentType":5126,
			"count":24,
			"type":"VEC3",
			"min":[-1,-1,-1
			],
			"max":[1,1,1
			]
		},
		{
			"bufferView":20,
			"componentType":5121,
			"count":36,
			"type":"SCALAR",
			"min":[0
			],
			"max":[23
			]
		},
		{
			"bufferView":21,
			"componentType":5126,
			"count":24,
			"type":"VEC3",
			"min":[0.617847204,-0.150000006,0.017088294
			],
			"max":[0.877847195,0.349999994,0.517088294
			]
		},
		{
			"bufferView":22,
			"componentType":5126,
			"count":24,
			"type":"VEC4",
			"min":[-1,0,0,1
			],
			"max":[1,0,0,1
			]
		},
		{
			"bufferView":23,
			"componentType":5126,
			"count":24,
			"type":"VEC2",
			"min":[-0.877847195,0.482911706
			],
			"max":[0.877847195,1.51708829
			]
		},
		{
			"bufferView":24,
			"componentType":5126,
			"count":24,
			"type":"VEC3",
			"min":[-1,-1,-1
			],
			"max":[1,1,1
			]
		},
		{
			"bufferView":25,
			"componentType":5121,
			"count":36,
			"type":"SCALAR",
			"min":[0
			],
			"max":[23
			]
		},
		{
			"bufferView":26,
			"componentType":5126,
			"count":24,
			"type":"VEC3",
			"min":[-0.871169984,-0.150000006,-0.517088234
			],
			"max":[-0.611169994,0.349999994,-0.0170882344
			]
		},
		{
			"bufferView":27,
			"componentType":5126,
			"count":24,
			"type":"VEC4",
			"min":[-1,0,0,1
			],
			"max":[1,0,0,1
			]
		},
		{
			"bufferView":28,
			"componentType":5126,
			"count":24,
			"type":"VEC2",
			"min":[-0.871169984,0.482911766
			],
			"max":[0.871169925,1.51708817
			]
		},
		{
			"bufferView":29,
			"componentType":5126,
			"count":24,
			"type":"VEC3",
			"min":[-1,-1,-1
			],
			"max":[1,1,1
			]
		},
		{
			"bufferView":30,
			"componentType":5121,
			"count":36,
			"type":"SCALAR",
			"min":[0
			],
			"max":[23
			]
		},
		{
			"bufferView":31,
			"componentType":5126,
			"count":24,
			"type":"VEC3",
			"min":[-0.382064551,-0.150000006,-0.513749659
			],
			"max":[-0.122064561,0.349999994,-0.0137496591
			]
		},
		{
			"bufferView":32,
			"componentType":5126,
			"count":24,
			"type":"VEC4",
			"min":[-1,0,0,1
			],
			"max":[1,0,0,1
			]
		},
		{
			"bufferView":33,
			"componentType":5126,
			"count":24,
			"type":"VEC2",
			"min":[-0.513749659,0.486250341
			],
			"max":[0.513749659,1.5137496
			]
		},
		{
			"bufferView":34,
			"componentType":5126,
			"count":24,
			"type":"VEC3",
			"min":[-1,-1,-1
			],
			"max":[1,1,1
			]
		},
		{
			"bufferView":35,
			"componentType":5121,
			"count":36,
			"type":"SCALAR",
			"min":[0
			],
			"max":[23
			]
		},
		{
			"bufferView":36,
			"componentType":5126,
			"count":24,
			"type":"VEC3",
			"min":[0.127072513,-0.150000006,-0.518757522
			],
			"max":[0.387072504,0.349999994,-0.0187575221
			]
		},
		{
			"bufferView":37,
			"componentType":5126,
			"count":24,
			"type":"VEC4",
			"min":[-1,0,0,1
			],
			"max":[1,0,0,1
			]
		},
		{
			"bufferView":38,
			"componentType":5126,
			"count":24,
			"type":"VEC2",
			"min":[-0.518757522,0.481242478
			],
			"max":[0.518757522,1.51875758
			]
		},
		{
			"bufferView":39,
			"componentType":5126,
			"count":24,
			"type":"VEC3",
			"min":[-1,-1,-1
			],
			"max":[1,1,1
			]
		},
		{
			"bufferView":40,
			"componentType":5121,
			"count":36,
			"type":"SCALAR",
			"min":[0
			],
			"max":[23
			]
		},
		{
			"bufferView":41,
			"componentType":5126,
			"count":24,
			"type":"VEC3",
			"min":[0.617847204,-0.150000006,-0.520426869
			],
			"max":[0.877847195,0.349999994,-0.0204268694
			]
		},
		{
			"bufferView":42,
			"componentType":5126,
			"count":24,
			"type":"VEC4",
			"min":[-1,0,0,1
			],
			"max":[1,0,0,1
			]
		},
		{
			"bufferView":43,
			"componentType":5126,
			"count":24,
			"type":"VEC2",
			"min":[-0.877847254,0.479573131
			],
			"max":[0.877847195,1.52042687
			]
		},
		{
			"bufferView":44,
			"componentType":5126,
			"count":24,
			"type":"VEC3",
			"min":[-1,-1,-1
			],
			"max":[1,1,1
			]
		}
	],
	"buffers":[
		{
			"uri":"web_apples_container_trigger_data.bin",
			"byteLength":12084,
			"name":"main_buffer"
		}
	],
	"bufferViews":[
		{
			"buffer":0,
			"byteLength":84,
			"target":34963
		},
		{
			"buffer":0,
			"byteOffset":84,
			"byteLength":624,
			"target":34962
		},
		{
			"buffer":0,
			"byteOffset":708,
			"byteLength":832,
			"target":34962
		},
		{
			"buffer":0,
			"byteOffset":1540,
			"byteLength":416,
			"target":34962
		},
		{
			"buffer":0,
			"byteOffset":1956,
			"byteLength":624,
			"target":34962
		},
		{
			"buffer":0,
			"byteOffset":2580,
			"byteLength":36,
			"target":34963
		},
		{
			"buffer":0,
			"byteOffset":2616,
			"byteLength":288,
			"target":34962
		},
		{
			"buffer":0,
			"byteOffset":2904,
			"byteLength":384,
			"target":34962
		},
		{
			"buffer":0,
			"byteOffset":3288,
			"byteLength":192,
			"target":34962
		},
		{
			"buffer":0,
			"byteOffset":3480,
			"byteLength":288,
			"target":34962
		},
		{
			"buffer":0,
			"byteOffset":3768,
			"byteLength":36,
			"target":34963
		},
		{
			"buffer":0,
			"byteOffset":3804,
			"byteLength":288,
			"target":34962
		},
		{
			"buffer":0,
			"byteOffset":4092,
			"byteLength":384,
			"target":34962
		},
		{
			"buffer":0,
			"byteOffset":4476,
			"byteLength":192,
			"target":34962
		},
		{
			"buffer":0,
			"byteOffset":4668,
			"byteLength":288,
			"target":34962
		},
		{
			"buffer":0,
			"byteOffset":4956,
			"byteLength":36,
			"target":34963
		},
		{
			"buffer":0,
			"byteOffset":4992,
			"byteLength":288,
			"target":34962
		},
		{
			"buffer":0,
			"byteOffset":5280,
			"byteLength":384,
			"target":34962
		},
		{
			"buffer":0,
			"byteOffset":5664,
			"byteLength":192,
			"target":34962
		},
		{
			"buffer":0,
			"byteOffset":5856,
			"byteLength":288,
			"target":34962
		},
		{
			"buffer":0,
			"byteOffset":6144,
			"byteLength":36,
			"target":34963
		},
		{
			"buffer":0,
			"byteOffset":6180,
			"byteLength":288,
			"target":34962
		},
		{
			"buffer":0,
			"byteOffset":6468,
			"byteLength":384,
			"target":34962
		},
		{
			"buffer":0,
			"byteOffset":6852,
			"byteLength":192,
			"target":34962
		},
		{
			"buffer":0,
			"byteOffset":7044,
			"byteLength":288,
			"target":34962
		},
		{
			"buffer":0,
			"byteOffset":7332,
			"byteLength":36,
			"target":34963
		},
		{
			"buffer":0,
			"byteOffset":7368,
			"byteLength":288,
			"target":34962
		},
		{
			"buffer":0,
			"byteOffset":7656,
			"byteLength":384,
			"target":34962
		},
		{
			"buffer":0,
			"byteOffset":8040,
			"byteLength":192,
			"target":34962
		},
		{
			"buffer":0,
			"byteOffset":8232,
			"byteLength":288,
			"target":34962
		},
		{
			"buffer":0,
			"byteOffset":8520,
			"byteLength":36,
			"target":34963
		},
		{
			"buffer":0,
			"byteOffset":8556,
			"byteLength":288,
			"target":34962
		},
		{
			"buffer":0,
			"byteOffset":8844,
			"byteLength":384,
			"target":34962
		},
		{
			"buffer":0,
			"byteOffset":9228,
			"byteLength":192,
			"target":34962
		},
		{
			"buffer":0,
			"byteOffset":9420,
			"byteLength":288,
			"target":34962
		},
		{
			"buffer":0,
			"byteOffset":9708,
			"byteLength":36,
			"target":34963
		},
		{
			"buffer":0,
			"byteOffset":9744,
			"byteLength":288,
			"target":34962
		},
		{
			"buffer":0,
			"byteOffset":10032,
			"byteLength":384,
			"target":34962
		},
		{
			"buffer":0,
			"byteOffset":10416,
			"byteLength":192,
			"target":34962
		},
		{
			"buffer":0,
			"byteOffset":10608,
			"byteLength":288,
			"target":34962
		},
		{
			"buffer":0,
			"byteOffset":10896,
			"byteLength":36,
			"target":34963
		},
		{
			"buffer":0,
			"byteOffset":10932,
			"byteLength":288,
			"target":34962
		},
		{
			"buffer":0,
			"byteOffset":11220,
			"byteLength":384,
			"target":34962
		},
		{
			"buffer":0,
			"byteOffset":11604,
			"byteLength":192,
			"target":34962
		},
		{
			"buffer":0,
			"byteOffset":11796,
			"byteLength":288,
			"target":34962
		}
	],
	"nodes":[
		{
			"children":[1,2,3,4,5,6,7,8,9
			],
			"name":"Root"
		},
		{
			"name":"container",
			"mesh":0
		},
		{
			"name":"trigger_01",
			"mesh":1
		},
		{
			"matrix":[1,0,0,0,0,1,0,0,0,0,1,0,0,0,-0.00166931748,1
			],
			"name":"trigger_02",
			"mesh":2
		},
		{
			"matrix":[1,0,0,0,0,1,0,0,0,0,1,0,0,0,-0.00166931748,1
			],
			"name":"trigger_03",
			"mesh":3
		},
		{
			"matrix":[1,0,0,0,0,1,0,0,0,0,1,0,0,0,-0.00166931748,1
			],
			"name":"trigger_04",
			"mesh":4
		},
		{
			"name":"trigger_05",
			"mesh":5
		},
		{
			"matrix":[1,0,0,0,0,1,0,0,0,0,1,0,0,0,-0.00166931748,1
			],
			"name":"trigger_06",
			"mesh":6
		},
		{
			"matrix":[1,0,0,0,0,1,0,0,0,0,1,0,0,0,-0.00166931748,1
			],
			"name":"trigger_07",
			"mesh":7
		},
		{
			"matrix":[1,0,0,0,0,1,0,0,0,0,1,0,0,0,-0.00166931748,1
			],
			"name":"trigger_08",
			"mesh":8
		}
	],
	"meshes":[
		{
			"primitives":[
				{
					"attributes":{
						"POSITION":1,
						"TANGENT":2,
						"NORMAL":4,
						"TEXCOORD_0":3
					},
					"indices":0
				}
			],
			"name":"OUT_container"
		},
		{
			"primitives":[
				{
					"attributes":{
						"POSITION":6,
						"TANGENT":7,
						"NORMAL":9,
						"TEXCOORD_0":8
					},
					"indices":5
				}
			],
			"name":"OUT_trigger_01"
		},
		{
			"primitives":[
				{
					"attributes":{
						"POSITION":11,
						"TANGENT":12,
						"NORMAL":14,
						"TEXCOORD_0":13
					},
					"indices":10
				}
			],
			"name":"OUT_trigger_02"
		},
		{
			"primitives":[
				{
					"attributes":{
						"POSITION":16,
						"TANGENT":17,
						"NORMAL":19,
						"TEXCOORD_0":18
					},
					"indices":15
				}
			],
			"name":"OUT_trigger_03"
		},
		{
			"primitives":[
				{
					"attributes":{
						"POSITION":21,
						"TANGENT":22,
						"NORMAL":24,
						"TEXCOORD_0":23
					},
					"indices":20
				}
			],
			"name":"OUT_trigger_04"
		},
		{
			"primitives":[
				{
					"attributes":{
						"POSITION":26,
						"TANGENT":27,
						"NORMAL":29,
						"TEXCOORD_0":28
					},
					"indices":25
				}
			],
			"name":"OUT_trigger_01"
		},
		{
			"primitives":[
				{
					"attributes":{
						"POSITION":31,
						"TANGENT":32,
						"NORMAL":34,
						"TEXCOORD_0":33
					},
					"indices":30
				}
			],
			"name":"OUT_trigger_02"
		},
		{
			"primitives":[
				{
					"attributes":{
						"POSITION":36,
						"TANGENT":37,
						"NORMAL":39,
						"TEXCOORD_0":38
					},
					"indices":35
				}
			],
			"name":"OUT_trigger_03"
		},
		{
			"primitives":[
				{
					"attributes":{
						"POSITION":41,
						"TANGENT":42,
						"NORMAL":44,
						"TEXCOORD_0":43
					},
					"indices":40
				}
			],
			"name":"OUT_trigger_04"
		}
	],
	"scenes":[
		{
			"nodes":[0
			]
		}
	],
	"scene":0
}
