{
	"asset":{
		"version":"2.0",
		"generator":"Houdini GLTF 2.0 Exporter"
	},
	"accessors":[
		{
			"bufferView":0,
			"componentType":5121,
			"count":84,
			"type":"SCALAR",
			"min":[0
			],
			"max":[53
			]
		},
		{
			"bufferView":1,
			"componentType":5126,
			"count":54,
			"type":"VEC3",
			"min":[-1.09799993,-0.0480000004,-0.59799999
			],
			"max":[1.09799993,1.3560847,0.59799999
			]
		},
		{
			"bufferView":2,
			"componentType":5126,
			"count":54,
			"type":"VEC3",
			"min":[-1,-1,-1
			],
			"max":[1,1,1
			]
		},
		{
			"bufferView":3,
			"componentType":5126,
			"count":54,
			"type":"VEC2",
			"min":[-1.09800005,-0.356084704
			],
			"max":[1.09799993,1.59800005
			]
		},
		{
			"bufferView":4,
			"componentType":5126,
			"count":54,
			"type":"VEC4",
			"min":[-1,0,0,1
			],
			"max":[1,0,1,1
			]
		}
	],
	"buffers":[
		{
			"uri":"web_apples_container_tall_data.bin",
			"byteLength":2676,
			"name":"main_buffer"
		}
	],
	"bufferViews":[
		{
			"buffer":0,
			"byteLength":84,
			"target":34963
		},
		{
			"buffer":0,
			"byteOffset":84,
			"byteLength":648,
			"target":34962
		},
		{
			"buffer":0,
			"byteOffset":732,
			"byteLength":648,
			"target":34962
		},
		{
			"buffer":0,
			"byteOffset":1380,
			"byteLength":432,
			"target":34962
		},
		{
			"buffer":0,
			"byteOffset":1812,
			"byteLength":864,
			"target":34962
		}
	],
	"nodes":[
		{
			"children":[1
			],
			"name":"Root"
		},
		{
			"name":"container_tall",
			"mesh":0
		}
	],
	"meshes":[
		{
			"primitives":[
				{
					"attributes":{
						"POSITION":1,
						"TANGENT":4,
						"TEXCOORD_0":3,
						"NORMAL":2
					},
					"indices":0
				}
			],
			"name":"OUT_container_tall"
		}
	],
	"scenes":[
		{
			"nodes":[0
			]
		}
	],
	"scene":0
}
