{
	"asset":{
		"version":"2.0",
		"generator":"Houdini GLTF 2.0 Exporter"
	},
	"accessors":[
		{
			"bufferView":0,
			"componentType":5121,
			"count":84,
			"type":"SCALAR",
			"min":[0
			],
			"max":[51
			]
		},
		{
			"bufferView":1,
			"componentType":5126,
			"count":52,
			"type":"VEC3",
			"min":[-1.09799993,-0.0480000004,-0.59799999
			],
			"max":[1.09799993,1.15999997,0.59799999
			]
		},
		{
			"bufferView":2,
			"componentType":5126,
			"count":52,
			"type":"VEC4",
			"min":[-1,0,0,1
			],
			"max":[1,0,1,1
			]
		},
		{
			"bufferView":3,
			"componentType":5126,
			"count":52,
			"type":"VEC2",
			"min":[-1.09800005,-0.159999967
			],
			"max":[1.09799993,1.59800005
			]
		},
		{
			"bufferView":4,
			"componentType":5126,
			"count":52,
			"type":"VEC3",
			"min":[-1,-1,-1
			],
			"max":[1,1,1
			]
		}
	],
	"buffers":[
		{
			"uri":"web_apples_container_tall2_data.bin",
			"byteLength":2580,
			"name":"main_buffer"
		}
	],
	"bufferViews":[
		{
			"buffer":0,
			"byteLength":84,
			"target":34963
		},
		{
			"buffer":0,
			"byteOffset":84,
			"byteLength":624,
			"target":34962
		},
		{
			"buffer":0,
			"byteOffset":708,
			"byteLength":832,
			"target":34962
		},
		{
			"buffer":0,
			"byteOffset":1540,
			"byteLength":416,
			"target":34962
		},
		{
			"buffer":0,
			"byteOffset":1956,
			"byteLength":624,
			"target":34962
		}
	],
	"nodes":[
		{
			"children":[1
			],
			"name":"Root"
		},
		{
			"name":"container",
			"mesh":0
		}
	],
	"meshes":[
		{
			"primitives":[
				{
					"attributes":{
						"POSITION":1,
						"TANGENT":2,
						"NORMAL":4,
						"TEXCOORD_0":3
					},
					"indices":0
				}
			],
			"name":"OUT_container"
		}
	],
	"scenes":[
		{
			"nodes":[0
			]
		}
	],
	"scene":0
}
