{
	"asset":{
		"version":"2.0",
		"generator":"Houdini GLTF 2.0 Exporter"
	},
	"accessors":[
		{
			"bufferView":0,
			"componentType":5121,
			"count":84,
			"type":"SCALAR",
			"min":[0
			],
			"max":[51
			]
		},
		{
			"bufferView":1,
			"componentType":5126,
			"count":52,
			"type":"VEC3",
			"min":[-1.09799993,-0.0480000004,-0.59799999
			],
			"max":[1.09799993,1.15999997,0.59799999
			]
		},
		{
			"bufferView":2,
			"componentType":5126,
			"count":52,
			"type":"VEC4",
			"min":[-1,0,0,1
			],
			"max":[1,0,1,1
			]
		},
		{
			"bufferView":3,
			"componentType":5126,
			"count":52,
			"type":"VEC2",
			"min":[-1.09800005,-0.159999967
			],
			"max":[1.09799993,1.59800005
			]
		},
		{
			"bufferView":4,
			"componentType":5126,
			"count":52,
			"type":"VEC3",
			"min":[-1,-1,-1
			],
			"max":[1,1,1
			]
		},
		{
			"bufferView":5,
			"componentType":5121,
			"count":36,
			"type":"SCALAR",
			"min":[0
			],
			"max":[23
			]
		},
		{
			"bufferView":6,
			"componentType":5126,
			"count":24,
			"type":"VEC3",
			"min":[-1.04538,1.10489595,-0.547580004
			],
			"max":[1.04538,1.15289593,0.547580004
			]
		},
		{
			"bufferView":7,
			"componentType":5126,
			"count":24,
			"type":"VEC4",
			"min":[1,0,0,1
			],
			"max":[1,0,0,1
			]
		},
		{
			"bufferView":8,
			"componentType":5126,
			"count":24,
			"type":"VEC2",
			"min":[-1.04538,-0.152895927
			],
			"max":[1.04538,1.54758
			]
		},
		{
			"bufferView":9,
			"componentType":5126,
			"count":24,
			"type":"VEC3",
			"min":[-1,-1,-1
			],
			"max":[1,1,1
			]
		}
	],
	"buffers":[
		{
			"uri":"web_apples_container_tall_cap_data.bin",
			"byteLength":3768,
			"name":"main_buffer"
		}
	],
	"bufferViews":[
		{
			"buffer":0,
			"byteLength":84,
			"target":34963
		},
		{
			"buffer":0,
			"byteOffset":84,
			"byteLength":624,
			"target":34962
		},
		{
			"buffer":0,
			"byteOffset":708,
			"byteLength":832,
			"target":34962
		},
		{
			"buffer":0,
			"byteOffset":1540,
			"byteLength":416,
			"target":34962
		},
		{
			"buffer":0,
			"byteOffset":1956,
			"byteLength":624,
			"target":34962
		},
		{
			"buffer":0,
			"byteOffset":2580,
			"byteLength":36,
			"target":34963
		},
		{
			"buffer":0,
			"byteOffset":2616,
			"byteLength":288,
			"target":34962
		},
		{
			"buffer":0,
			"byteOffset":2904,
			"byteLength":384,
			"target":34962
		},
		{
			"buffer":0,
			"byteOffset":3288,
			"byteLength":192,
			"target":34962
		},
		{
			"buffer":0,
			"byteOffset":3480,
			"byteLength":288,
			"target":34962
		}
	],
	"nodes":[
		{
			"children":[1,2
			],
			"name":"Root"
		},
		{
			"name":"container",
			"mesh":0
		},
		{
			"name":"container_cap",
			"mesh":1
		}
	],
	"meshes":[
		{
			"primitives":[
				{
					"attributes":{
						"POSITION":1,
						"TANGENT":2,
						"NORMAL":4,
						"TEXCOORD_0":3
					},
					"indices":0
				}
			],
			"name":"OUT_container"
		},
		{
			"primitives":[
				{
					"attributes":{
						"POSITION":6,
						"TANGENT":7,
						"NORMAL":9,
						"TEXCOORD_0":8
					},
					"indices":5
				}
			],
			"name":"uvtexture2"
		}
	],
	"scenes":[
		{
			"nodes":[0
			]
		}
	],
	"scene":0
}
